<?xml version="1.0" standalone="no"?>
<!DOCTYPE svg PUBLIC "-//W3C//DTD SVG 20010904//EN"
 "http://www.w3.org/TR/2001/REC-SVG-20010904/DTD/svg10.dtd">
<svg version="1.0" xmlns="http://www.w3.org/2000/svg"
 width="184.000000pt" height="182.000000pt" viewBox="0 0 184.000000 182.000000"
 preserveAspectRatio="xMidYMid meet">

<g transform="translate(0.000000,182.000000) scale(0.100000,-0.100000)"
fill="#000000" stroke="none">
<path d="M840 1501 c-5 -11 -10 -27 -10 -37 0 -18 -43 -18 -400 7 -299 21
-310 21 -310 11 0 -22 190 -41 585 -60 119 -6 140 -9 143 -23 2 -13 -15 -23
-75 -43 -94 -31 -155 -33 -206 -6 -33 18 -69 25 -104 21 -16 -1 -17 -44 -2
-86 10 -28 9 -36 -11 -63 -18 -24 -25 -52 -32 -134 l-9 -103 31 -26 c48 -40
85 -44 146 -14 28 14 69 39 89 55 43 34 71 38 78 11 2 -10 -26 -99 -64 -197
-38 -98 -69 -187 -69 -197 0 -26 45 -67 73 -67 44 0 65 31 121 180 30 79 58
146 63 147 5 2 55 -44 112 -101 l104 -104 13 -93 c8 -58 9 -100 3 -110 -5 -10
-35 -43 -67 -73 -33 -31 -67 -72 -78 -91 -18 -34 -18 -35 2 -62 15 -20 31 -29
58 -31 35 -3 43 2 132 90 72 70 104 110 130 162 19 38 62 109 96 157 54 79 69
94 140 136 194 116 247 255 175 461 -31 89 -69 142 -102 142 -50 0 -70 -53
-41 -108 26 -50 56 -155 56 -194 0 -77 -80 -188 -135 -188 -30 0 -528 501
-523 526 3 15 14 19 58 21 169 7 457 25 535 34 108 12 135 18 135 31 0 10 -18
10 -305 -11 -77 -5 -200 -13 -272 -17 l-133 -7 0 30 c0 28 -3 31 -46 37 -67 9
-72 8 -84 -13z m85 -61 c0 -36 -4 -45 -19 -48 -23 -5 -36 14 -36 54 0 37 7 46
35 42 17 -3 20 -10 20 -48z m-359 -129 c54 -37 61 -39 81 -25 12 8 31 14 42
14 11 0 51 11 89 25 38 14 89 25 113 25 l44 0 260 -260 c142 -143 265 -260
273 -260 21 0 99 57 126 93 32 42 50 124 41 185 -4 26 -20 80 -37 120 -16 40
-27 79 -24 87 9 25 35 17 56 -17 63 -104 83 -274 41 -360 -28 -59 -92 -118
-169 -157 -79 -40 -166 -150 -247 -311 -29 -57 -174 -216 -210 -230 -28 -11
-55 6 -55 36 0 17 23 47 80 105 44 44 80 87 80 97 0 9 -5 47 -10 83 -9 62 -4
126 16 203 10 42 -18 29 -32 -14 -6 -19 -15 -35 -20 -37 -5 -2 -56 44 -114
102 l-105 105 18 48 c26 65 31 92 19 92 -16 0 -28 -21 -60 -110 -110 -307
-130 -354 -151 -364 -17 -7 -26 -5 -43 12 l-21 21 71 188 c40 104 72 192 72
198 0 5 -10 19 -22 32 -19 20 -20 27 -10 43 14 23 16 50 3 50 -6 0 -18 -14
-28 -31 -10 -17 -49 -53 -87 -80 -67 -48 -101 -60 -108 -39 -2 7 -15 6 -35 -2
-54 -20 -63 -2 -54 107 6 74 12 98 36 132 26 41 27 44 11 68 -20 30 -21 65 -2
65 8 0 40 -18 72 -39z"/>
<path d="M495 1150 c-9 -14 4 -52 16 -45 12 8 12 55 0 55 -6 0 -13 -5 -16 -10z"/>
<path d="M274 910 c-27 -10 -38 -26 -25 -35 12 -7 76 18 85 34 9 13 -29 14
-60 1z"/>
<path d="M338 816 c-31 -39 -34 -46 -15 -46 16 0 67 52 67 68 0 23 -25 12 -52
-22z"/>
<path d="M447 803 c-2 -4 -7 -25 -11 -45 -5 -30 -4 -38 8 -38 19 0 23 7 28 49
3 32 -13 54 -25 34z"/>
</g>
</svg>
